# xmcd
#
# Track frame offsets: 
#        150
#        16105
#        36801
#        57209
#        72065
#        89997
#        110137
#        126024
#        152904
#        168172
#
# Disc length: 2499 seconds
#
# Revision: 0
# Processed by: cddbd v1.5.2PL0 Copyright (c) Steve Scherf et al.
# Submitted via: ExactAudioCopy v1.3
#
DISCID=8109c10a
DTITLE=J.T. Red - No Hoopla
DYEAR=2001
DGENRE=Blues Rock
TTITLE0=You Don't Love Me Anymore
TTITLE1=Blue Me Away
TTITLE2=Shirly May
TTITLE3=Bring Down The Rain
TTITLE4=Sweet As Rain
TTITLE5=Cruisin
TTITLE6=Mesa Verde Blues
TTITLE7=Gone Too Long
TTITLE8=America God Bless You
TTITLE9=Si Me Quieres Con El Alma
EXTD=
EXTT0=
EXTT1=
EXTT2=
EXTT3=
EXTT4=
EXTT5=
EXTT6=
EXTT7=
EXTT8=
EXTT9=
PLAYORDER=
